# xmcd
#
# Track frame offsets: 
#        150
#        23677
#        42467
#        53547
#        86690
#        117450
#        137485
#        163407
#
# Disc length: 2522 seconds
#
# Revision: 0
# Processed by: cddbd v1.5.2PL0 Copyright (c) Steve Scherf et al.
# Submitted via: ExactAudioCopy v0.99pb5
#
DISCID=6609d808
DTITLE=Box Of Blues - What's Up With That
DYEAR=1900
DGENRE=Blues
TTITLE0=Did All That I Could
TTITLE1=Lovin' Somebody
TTITLE2=What's Up With That?
TTITLE3=I Tried To Love A Drinking Woman
TTITLE4=Reasons
TTITLE5=Walkin' With My Baby
TTITLE6=Sexy Lookin' Lady
TTITLE7=Turn Your LIghs Down Low
EXTD=
EXTT0=
EXTT1=
EXTT2=
EXTT3=
EXTT4=
EXTT5=
EXTT6=
EXTT7=
PLAYORDER=
